<svg width="20" height="20" viewBox="0 0 20 20" fill="none" xmlns="http://www.w3.org/2000/svg">
<rect width="20" height="20" rx="10" fill="#74501E"/>
<path d="M14.1659 13.3258C13.4286 13.3258 12.8288 13.9256 12.8288 14.6629C12.8288 15.4002 13.4286 16 14.1659 16C14.9032 16 15.503 15.4002 15.503 14.6629C15.503 13.9256 14.9032 13.3258 14.1659 13.3258ZM14.1659 15.1086C13.9202 15.1086 13.7202 14.9087 13.7202 14.6629C13.7202 14.4171 13.9201 14.2172 14.1659 14.2172C14.4117 14.2172 14.6116 14.4171 14.6116 14.6629C14.6116 14.9087 14.4117 15.1086 14.1659 15.1086Z" fill="white"/>
<path d="M14.1659 6.1795C13.5924 6.1795 13.1259 6.64604 13.1259 7.21949C13.1259 7.79293 13.5924 8.25947 14.1659 8.25947C14.7393 8.25947 15.2059 7.79293 15.2059 7.21949C15.2059 6.64604 14.7393 6.1795 14.1659 6.1795Z" fill="white"/>
<path d="M14.1659 4.17981C12.4898 4.17981 11.1262 5.5434 11.1262 7.21947C11.1262 7.9096 11.3526 8.56066 11.7817 9.1032L14.1659 12.1008L16.5509 9.10222C16.9792 8.56063 17.2056 7.9096 17.2056 7.21944C17.2056 5.54337 15.842 4.17981 14.1659 4.17981ZM15.8525 8.54826L14.1659 10.6688L12.4801 8.54922C12.1776 8.16665 12.0177 7.70683 12.0177 7.21944C12.0177 6.0349 12.9814 5.07119 14.1659 5.07119C15.3504 5.07119 16.3142 6.0349 16.3142 7.21944C16.3142 7.70686 16.1542 8.16668 15.8525 8.54826Z" fill="white"/>
<path d="M8.95701 14.2172H7.76846V15.1086H8.95701V14.2172Z" fill="white"/>
<path d="M10.5943 14.2172H9.4057V15.1086H10.5943V14.2172Z" fill="white"/>
<path d="M12.2315 14.2172H11.043V15.1086H12.2315V14.2172Z" fill="white"/>
<path d="M6.87406 7.21949C6.87406 6.64604 6.40752 6.1795 5.83408 6.1795C5.26063 6.1795 4.7941 6.64604 4.7941 7.21949C4.7941 7.79293 5.26063 8.25947 5.83408 8.25947C6.40752 8.25947 6.87406 7.79293 6.87406 7.21949Z" fill="white"/>
<path d="M8.21906 9.10222C8.64736 8.56066 8.87372 7.9096 8.87372 7.21947C8.87372 5.5434 7.51012 4.17981 5.83403 4.17981C4.158 4.17984 2.7944 5.5434 2.7944 7.21947C2.7944 7.90966 3.02079 8.56069 3.44986 9.1032L5.83406 12.1008L8.21906 9.10222ZM3.68582 7.21947C3.68582 6.03493 4.64952 5.07125 5.83406 5.07125C7.0186 5.07125 7.98233 6.03496 7.98233 7.2195C7.98233 7.70689 7.82241 8.16674 7.52067 8.54832L5.83406 10.6688L4.14825 8.54925C3.84573 8.16674 3.68582 7.70692 3.68582 7.21947Z" fill="white"/>
<path d="M5.8341 13.3258C5.09681 13.3258 4.49698 13.9256 4.49698 14.6629C4.49698 15.4002 5.09681 16 5.8341 16C6.57138 16 7.17125 15.4002 7.17125 14.6629C7.17125 13.9256 6.57138 13.3258 5.8341 13.3258ZM5.8341 15.1086C5.58833 15.1086 5.38839 14.9087 5.38839 14.6629C5.38839 14.4171 5.58833 14.2172 5.8341 14.2172C6.07986 14.2172 6.27983 14.4171 6.27983 14.6629C6.27983 14.9087 6.07986 15.1086 5.8341 15.1086Z" fill="white"/>
</svg>
