<svg width="19" height="19" viewBox="0 0 19 19" fill="none" xmlns="http://www.w3.org/2000/svg">
<path d="M9.5 19C14.7467 19 19 14.7467 19 9.5C19 4.25329 14.7467 0 9.5 0C4.25329 0 0 4.25329 0 9.5C0 14.7467 4.25329 19 9.5 19Z" fill="#74501E"/>
<path d="M13.3994 3.81149H5.60098C4.61369 3.81149 3.81268 4.6125 3.81268 5.60149V13.3999C3.81268 14.3872 4.61369 15.1882 5.60098 15.1882H13.3994C14.3867 15.1882 15.1877 14.3872 15.1877 13.3999V5.60149C15.1877 4.6125 14.3867 3.81149 13.3994 3.81149ZM12.1901 5.12731L13.6194 5.12393H13.6228C13.7599 5.12223 13.8717 5.234 13.8717 5.36948V6.80385C13.8717 6.94102 13.7616 7.05109 13.6245 7.05109L12.1969 7.05617C12.0597 7.05617 11.9496 6.9461 11.9496 6.81062L11.9445 5.37625C11.9428 5.23908 12.0529 5.12901 12.1901 5.12731ZM7.75676 8.52271C7.79402 8.45836 7.83297 8.39401 7.877 8.33304C8.24109 7.82839 8.83211 7.49817 9.49934 7.49817C10.1683 7.49817 10.7593 7.82839 11.1234 8.33304C11.1674 8.39401 11.2064 8.45836 11.2436 8.52441C11.4062 8.81229 11.5027 9.14591 11.5027 9.49984C11.5027 10.604 10.6035 11.5015 9.49934 11.5015C8.3952 11.5015 7.49766 10.604 7.49766 9.49984C7.49749 9.14591 7.5925 8.81229 7.75676 8.52271ZM14.0802 12.9901C14.0802 13.5913 13.5908 14.0807 12.9896 14.0807H6.0108C5.40962 14.0807 4.92021 13.5913 4.92021 12.9901V8.33304H6.61875C6.57642 8.43635 6.53916 8.54473 6.50868 8.65311C6.43078 8.92237 6.39014 9.20687 6.39014 9.49984C6.39014 11.2153 7.78555 12.6107 9.49934 12.6107C11.2148 12.6107 12.6102 11.2153 12.6102 9.49984C12.6102 9.20687 12.5679 8.92237 12.4917 8.65311C12.4595 8.54473 12.424 8.43635 12.3816 8.33304H14.0802V12.9901V12.9901Z" fill="white"/>
</svg>
